<?xml version="1.0" encoding="utf-8"?>
<!-- Generator: Adobe Illustrator 19.2.1, SVG Export Plug-In . SVG Version: 6.00 Build 0)  -->
<svg version="1.1" id="Ebene_1" xmlns="http://www.w3.org/2000/svg" xmlns:xlink="http://www.w3.org/1999/xlink" x="0px" y="0px"
	 viewBox="0 0 50 50" style="enable-background:new 0 0 50 50;" xml:space="preserve">
<style type="text/css">
	.st0{fill:#D40511;}
</style>
<path class="st0" d="M33,27.9v-5.6v-5.6V5.5H16.3v11.1H5.2v11.1v5.6v11.2h11.1h5.6h5.6h5.6h11.1V27.8H33V27.9z M27.4,27.9h-5.6v-5.6
	h5.6V27.9L27.4,27.9z M21.9,11.3h5.6v5.6h-5.6l0,0V11.3L21.9,11.3z M10.8,22.4h5.6V28h-5.6V22.4L10.8,22.4z M10.8,39.1v-5.6h5.6v5.6
	H10.8L10.8,39.1z M21.9,39.1v-5.6h5.6v5.6H21.9L21.9,39.1z M38.6,39.1H33v-5.6h5.6V39.1L38.6,39.1z"/>
</svg>
